<?xml version="1.0" encoding="UTF-8" standalone="no"?>
<!-- Created with Inkscape (http://www.inkscape.org/) -->

<svg
   xmlns:dc="http://purl.org/dc/elements/1.1/"
   xmlns:cc="http://creativecommons.org/ns#"
   xmlns:rdf="http://www.w3.org/1999/02/22-rdf-syntax-ns#"
   xmlns:svg="http://www.w3.org/2000/svg"
   xmlns="http://www.w3.org/2000/svg"
   xmlns:sodipodi="http://sodipodi.sourceforge.net/DTD/sodipodi-0.dtd"
   xmlns:inkscape="http://www.inkscape.org/namespaces/inkscape"
   width="80.510612"
   height="99.451248"
   id="svg3070"
   version="1.1"
   inkscape:version="0.48.5 r10040"
   inkscape:export-filename="/home/maxx/projects/g1/assets/menu_bg.png"
   inkscape:export-xdpi="300.44873"
   inkscape:export-ydpi="300.44873"
   sodipodi:docname="Neues Dokument 2">
  <defs
     id="defs3072" />
  <sodipodi:namedview
     id="base"
     pagecolor="#000000"
     bordercolor="#666666"
     borderopacity="1.0"
     inkscape:pageopacity="1"
     inkscape:pageshadow="2"
     inkscape:zoom="2.7977678"
     inkscape:cx="-72.946051"
     inkscape:cy="46.323571"
     inkscape:document-units="px"
     inkscape:current-layer="layer1"
     showgrid="false"
     fit-margin-top="20"
     fit-margin-left="20"
     fit-margin-right="20"
     fit-margin-bottom="20"
     inkscape:window-width="1920"
     inkscape:window-height="1118"
     inkscape:window-x="-2"
     inkscape:window-y="-3"
     inkscape:window-maximized="1" />
  <metadata
     id="metadata3075">
    <rdf:RDF>
      <cc:Work
         rdf:about="">
        <dc:format>image/svg+xml</dc:format>
        <dc:type
           rdf:resource="http://purl.org/dc/dcmitype/StillImage" />
        <dc:title></dc:title>
      </cc:Work>
    </rdf:RDF>
  </metadata>
  <g
     inkscape:label="Ebene 1"
     inkscape:groupmode="layer"
     id="layer1"
     transform="translate(-85.521815,-755.24759)">
    <path
       style="fill:#428ecf;fill-opacity:1;stroke:none"
       d="m 109.74075,799.84652 c -0.29882,10.49318 0.96527,10.59235 1.25356,0.29898 0.21428,-7.65073 8.12468,-9.06444 12.75975,-8.32703 6.34938,1.01015 12.39267,3.69574 11.61284,16.81137 -0.68947,11.59597 -12.85405,26.88225 -20.59797,25.02545 -2.10796,-0.50544 -3.48199,1.11363 -0.81377,1.02434 2.08415,-0.0697 30.60551,0.0192 31.659,0.0192 0.53078,0 0.8405,-0.56138 -0.88006,-1.32703 -2.19657,-0.97747 -4.19452,-3.84499 -4.62033,-5.19279 -1.67786,-5.31077 -1.9688,-13.0326 -1.04049,-21.96764 1.54043,-14.82671 2.93257,-27.88042 6.54088,-29.11041 0.55146,-0.18798 0.26824,-0.95869 -1.19804,-0.3561 -6.61214,2.71735 -34.80283,0.18962 -37.01238,-0.8618 -1.72726,-0.82192 -2.22776,-1.0247 -1.65628,0.48129 2.84747,7.50392 4.14701,15.91524 3.99329,23.48217 z"
       id="path3832"
       inkscape:connector-curvature="0"
       sodipodi:nodetypes="csssssssssssssc" />
  </g>
</svg>
